<svg id="Capa_1" data-name="Capa 1" xmlns="http://www.w3.org/2000/svg" viewBox="0 0 533.04 105.82"><defs><style>.cls-1,.cls-2{fill:none;stroke:#000;stroke-linecap:round;}.cls-1{stroke-linejoin:round;stroke-width:3px;}.cls-2{stroke-miterlimit:10;stroke-width:6px;}</style></defs><path d="M77.25,23.54A34.45,34.45,0,1,1,52.88,33.63,34.26,34.26,0,0,1,77.25,23.54m0-6A40.46,40.46,0,1,0,117.71,58,40.46,40.46,0,0,0,77.25,17.54Z" transform="translate(-7.48 -5.09)"/><path class="cls-1" d="M77.25,28.43a29.49,29.49,0,0,1,23.13,11.16" transform="translate(-7.48 -5.09)"/><path d="M77.25,13.09A44.91,44.91,0,1,1,32.34,58,45,45,0,0,1,77.25,13.09m0-8A52.91,52.91,0,1,0,130.15,58,52.91,52.91,0,0,0,77.25,5.09Z" transform="translate(-7.48 -5.09)"/><path class="cls-2" d="M10.48,30.64V29a9,9,0,0,1,9-9H42.44" transform="translate(-7.48 -5.09)"/><path class="cls-2" d="M112.7,20h21.16a9,9,0,0,1,9,9V94.1a9,9,0,0,1-9,9H100.47" transform="translate(-7.48 -5.09)"/><path class="cls-2" d="M128.27,18.32H116.93l1.33-2.66a2,2,0,0,1,1.81-1.12h5.05a2,2,0,0,1,1.82,1.12Z" transform="translate(-7.48 -5.09)"/><path class="cls-2" d="M55.57,103.13h-36a9.08,9.08,0,0,1-9.07-9.08V87.26" transform="translate(-7.48 -5.09)"/><path d="M168.71,41.89a9.87,9.87,0,0,1,5,1.31,10.4,10.4,0,0,1,3.68,3.54,9.25,9.25,0,0,1,1.41,5A9.55,9.55,0,0,1,177.36,57a10.6,10.6,0,0,1-3.91,3.7,10.77,10.77,0,0,1-5.34,1.36H156.92V74.11h-5V41.89Zm-.92,15.37a5.92,5.92,0,0,0,2.9-.73,5.77,5.77,0,0,0,2.12-2,5.1,5.1,0,0,0,.78-2.77,4.45,4.45,0,0,0-.78-2.57,5.79,5.79,0,0,0-2.12-1.85,6.23,6.23,0,0,0-2.9-.69H156.92V57.26Z" transform="translate(-7.48 -5.09)"/><path d="M195.5,41.89v13.9h20.17V41.89h5V74.11h-5V60.58H195.5V74.11h-5V41.89Z" transform="translate(-7.48 -5.09)"/><path d="M268.52,58a15.76,15.76,0,0,1-5.11,11.79,17.83,17.83,0,0,1-5.75,3.52,21.83,21.83,0,0,1-14.62,0,17.56,17.56,0,0,1-5.76-3.52,16.13,16.13,0,0,1,0-23.58A17.56,17.56,0,0,1,243,42.69a21.83,21.83,0,0,1,14.62,0,17.83,17.83,0,0,1,5.75,3.52A15.76,15.76,0,0,1,268.52,58Zm-5.06,0a11,11,0,0,0-1.68-6,11.89,11.89,0,0,0-4.65-4.19,15.81,15.81,0,0,0-13.61,0,11.74,11.74,0,0,0-4.6,4.19,11.71,11.71,0,0,0,0,12,11.74,11.74,0,0,0,4.6,4.19,15.81,15.81,0,0,0,13.61,0A11.78,11.78,0,0,0,261.78,64,11,11,0,0,0,263.46,58Z" transform="translate(-7.48 -5.09)"/><path d="M286.29,74.11V46.67H275.24V41.89h27.4v4.78H291.26V74.11Z" transform="translate(-7.48 -5.09)"/><path d="M345.68,58a15.76,15.76,0,0,1-5.11,11.79,17.72,17.72,0,0,1-5.75,3.52,21.83,21.83,0,0,1-14.62,0,17.41,17.41,0,0,1-5.75-3.52,16.1,16.1,0,0,1,0-23.58,17.41,17.41,0,0,1,5.75-3.52,21.83,21.83,0,0,1,14.62,0,17.72,17.72,0,0,1,5.75,3.52A15.76,15.76,0,0,1,345.68,58Zm-5.06,0a11,11,0,0,0-1.68-6,11.89,11.89,0,0,0-4.65-4.19,15.81,15.81,0,0,0-13.61,0,11.74,11.74,0,0,0-4.6,4.19,11.71,11.71,0,0,0,0,12,11.74,11.74,0,0,0,4.6,4.19,15.81,15.81,0,0,0,13.61,0A11.78,11.78,0,0,0,338.94,64,11,11,0,0,0,340.62,58Z" transform="translate(-7.48 -5.09)"/><path d="M362.12,41.89l12.61,17.17,12.71-17.17h4.79V74.11h-5V60.62c0-2,0-3.88.11-5.66s.21-3.54.39-5.29L376.21,64.86h-3L361.71,49.67q.27,2.67.39,5.31c.07,1.77.11,3.65.11,5.64V74.11h-5V41.89Z" transform="translate(-7.48 -5.09)"/><path d="M431.5,74.11l-3.45-7.73H411l-3.5,7.73h-5.15l14.55-32.22h5.57l14.45,32.22ZM417,53.12l-3.86,8.47h12.7l-4-8.65c-.4-1-.79-1.95-1.19-2.9s-.8-2-1.2-3c-.43,1.1-.84,2.15-1.24,3.15S417.47,52.14,417,53.12Z" transform="translate(-7.48 -5.09)"/><path d="M452.36,74.11V46.67H441.31V41.89H468.7v4.78H457.33V74.11Z" transform="translate(-7.48 -5.09)"/><path d="M498.53,74.11H479.06V69.33h7.23V46.67h-7.23V41.89h19.47v4.78h-7.27V69.33h7.27Z" transform="translate(-7.48 -5.09)"/><path d="M540.15,69.6a17.27,17.27,0,0,1-3.22,2.26,22,22,0,0,1-4.67,1.93,20.6,20.6,0,0,1-12.46-.39,16.62,16.62,0,0,1-5.54-3.34,15.06,15.06,0,0,1-3.71-5.22A16.93,16.93,0,0,1,509.21,58a15.18,15.18,0,0,1,1.41-6.54,16.43,16.43,0,0,1,3.84-5.2,17.8,17.8,0,0,1,5.62-3.43,18.67,18.67,0,0,1,6.72-1.22,19.05,19.05,0,0,1,5.6.81,21.77,21.77,0,0,1,4.74,2A16.32,16.32,0,0,1,540.52,47l-3.08,4a21.17,21.17,0,0,0-4.91-3.2,14,14,0,0,0-6-1.26,13.42,13.42,0,0,0-4.54.78,12.07,12.07,0,0,0-3.91,2.28,11.32,11.32,0,0,0-2.76,3.61,10.63,10.63,0,0,0-1,4.79,11,11,0,0,0,1.82,6.47,11.3,11.3,0,0,0,4.76,3.91,15.37,15.37,0,0,0,6.36,1.31,13.61,13.61,0,0,0,4.32-.64A16,16,0,0,0,535,67.44a28.89,28.89,0,0,0,2.71-1.94Z" transform="translate(-7.48 -5.09)"/></svg>